REM DIRINDEX 1\2\6,1\2\7,1\2\8,1\3\9,1\3\10,1\3\11,1\4\12,1\4\13,1\4\14,1\5\15,1\5\16,1\5\17,1\5\18
REM DIRNAME folder01,folder02,folder03,folder04,folder05,folder06,folder07,folder08,folder09,folder10,folder11,folder12,folder13,folder14,folder15,folder16,folder17,folder18
TITLE ""
FILE "" MP3
  TRACK 01 AUDIO
    TITLE "16:cjc019_5004"
    INDEX 01 00:00:00
  TRACK 02 AUDIO
    TITLE "0:"
    INDEX 01 00:01:15
  TRACK 03 AUDIO
    TITLE "18:cjc019_5005"
    INDEX 01 00:01:71
  TRACK 04 AUDIO
    TITLE "0:"
    INDEX 01 00:06:16
  TRACK 05 AUDIO
    TITLE "17:cjc019_5006"
    INDEX 01 00:06:71
  TRACK 06 AUDIO
    TITLE "0:"
    INDEX 01 00:08:24
  TRACK 07 AUDIO
    TITLE "16:cjc019_5007"
    INDEX 01 00:10:04
  TRACK 08 AUDIO
    TITLE "0:"
    INDEX 01 00:11:29
  TRACK 09 AUDIO
    TITLE "18:cjc019_5008"
    INDEX 01 00:12:11
  TRACK 10 AUDIO
    TITLE "0:"
    INDEX 01 00:14:27
  TRACK 11 AUDIO
    TITLE "17:cjc019_5009"
    INDEX 01 00:15:01
  TRACK 12 AUDIO
    TITLE "0:"
    INDEX 01 00:16:26
  TRACK 13 AUDIO
    TITLE "16:cjc019_5010"
    INDEX 01 00:18:05
  TRACK 14 AUDIO
    TITLE "0:"
    INDEX 01 00:19:11
  TRACK 15 AUDIO
    TITLE "18:cjc019_5011"
    INDEX 01 00:19:71
  TRACK 16 AUDIO
    TITLE "0:"
    INDEX 01 00:23:18
  TRACK 17 AUDIO
    TITLE "17:cjc019_5012"
    INDEX 01 00:23:59
  TRACK 18 AUDIO
    TITLE "0:"
    INDEX 01 00:24:67
  TRACK 19 AUDIO
    TITLE "16:cjc019_5013"
    INDEX 01 00:26:56
  TRACK 20 AUDIO
    TITLE "0:"
    INDEX 01 00:27:59
  TRACK 21 AUDIO
    TITLE "18:cjc019_5014"
    INDEX 01 00:28:43
  TRACK 22 AUDIO
    TITLE "0:"
    INDEX 01 00:32:00
  TRACK 23 AUDIO
    TITLE "17:cjc019_5015"
    INDEX 01 00:32:50
  TRACK 24 AUDIO
    TITLE "0:"
    INDEX 01 00:33:56
  TRACK 25 AUDIO
    TITLE "16:cjc019_5016"
    INDEX 01 00:35:41
  TRACK 26 AUDIO
    TITLE "0:"
    INDEX 01 00:37:01
  TRACK 27 AUDIO
    TITLE "18:cjc019_5017"
    INDEX 01 00:37:61
  TRACK 28 AUDIO
    TITLE "0:"
    INDEX 01 00:41:32
  TRACK 29 AUDIO
    TITLE "17:cjc019_5018"
    INDEX 01 00:42:12
  TRACK 30 AUDIO
    TITLE "0:"
    INDEX 01 00:43:48
  TRACK 31 AUDIO
    TITLE "16:cjc019_5019"
    INDEX 01 00:45:35
  TRACK 32 AUDIO
    TITLE "0:"
    INDEX 01 00:46:58
  TRACK 33 AUDIO
    TITLE "18:cjc019_5020"
    INDEX 01 00:47:44
  TRACK 34 AUDIO
    TITLE "0:"
    INDEX 01 00:51:01
  TRACK 35 AUDIO
    TITLE "17:cjc019_5021"
    INDEX 01 00:51:46
  TRACK 36 AUDIO
    TITLE "0:"
    INDEX 01 00:52:61
  TRACK 37 AUDIO
    TITLE "16:cjc019_5022"
    INDEX 01 00:54:46
  TRACK 38 AUDIO
    TITLE "0:"
    INDEX 01 00:55:63
  TRACK 39 AUDIO
    TITLE "18:cjc019_5023"
    INDEX 01 00:56:41
  TRACK 40 AUDIO
    TITLE "0:"
    INDEX 01 00:57:50
  TRACK 41 AUDIO
    TITLE "17:cjc019_5024"
    INDEX 01 00:58:26
  TRACK 42 AUDIO
    TITLE "0:"
    INDEX 01 00:59:45
  TRACK 43 AUDIO
    TITLE "16:cjc019_5025"
    INDEX 01 01:01:31
  TRACK 44 AUDIO
    TITLE "0:"
    INDEX 01 01:02:54
  TRACK 45 AUDIO
    TITLE "18:cjc019_5026"
    INDEX 01 01:03:37
  TRACK 46 AUDIO
    TITLE "0:"
    INDEX 01 01:05:54
  TRACK 47 AUDIO
    TITLE "17:cjc019_5027"
    INDEX 01 01:06:40
  TRACK 48 AUDIO
    TITLE "0:"
    INDEX 01 01:07:64
  TRACK 49 AUDIO
    TITLE "16:cjc019_5028"
    INDEX 01 01:09:48
  TRACK 50 AUDIO
    TITLE "0:"
    INDEX 01 01:10:65
  TRACK 51 AUDIO
    TITLE "18:cjc019_5029"
    INDEX 01 01:11:56
  TRACK 52 AUDIO
    TITLE "0:"
    INDEX 01 01:14:14
  TRACK 53 AUDIO
    TITLE "17:cjc019_5030"
    INDEX 01 01:14:68
  TRACK 54 AUDIO
    TITLE "0:"
    INDEX 01 01:16:18
  TRACK 55 AUDIO
    TITLE "16:cjc019_5031"
    INDEX 01 01:18:02
  TRACK 56 AUDIO
    TITLE "0:"
    INDEX 01 01:19:28
  TRACK 57 AUDIO
    TITLE "18:cjc019_5032"
    INDEX 01 01:20:06
  TRACK 58 AUDIO
    TITLE "0:"
    INDEX 01 01:21:29
  TRACK 59 AUDIO
    TITLE "17:cjc019_5033"
    INDEX 01 01:22:05
  TRACK 60 AUDIO
    TITLE "0:"
    INDEX 01 01:23:32
  TRACK 61 AUDIO
    TITLE "16:cjc019_5034"
    INDEX 01 01:25:08
  TRACK 62 AUDIO
    TITLE "0:"
    INDEX 01 01:26:32
  TRACK 63 AUDIO
    TITLE "18:cjc019_5035"
    INDEX 01 01:27:12
  TRACK 64 AUDIO
    TITLE "0:"
    INDEX 01 01:29:48
  TRACK 65 AUDIO
    TITLE "17:cjc019_5036"
    INDEX 01 01:30:22
  TRACK 66 AUDIO
    TITLE "0:"
    INDEX 01 01:31:53
  TRACK 67 AUDIO
    TITLE "16:cjc019_5037"
    INDEX 01 01:33:31
  TRACK 68 AUDIO
    TITLE "0:"
    INDEX 01 01:35:02
  TRACK 69 AUDIO
    TITLE "18:cjc019_5038"
    INDEX 01 01:35:61
  TRACK 70 AUDIO
    TITLE "0:"
    INDEX 01 01:36:74
  TRACK 71 AUDIO
    TITLE "17:cjc019_5039"
    INDEX 01 01:37:48
  TRACK 72 AUDIO
    TITLE "0:"
    INDEX 01 01:39:19
  TRACK 73 AUDIO
    TITLE "16:cjc019_5040"
    INDEX 01 01:41:03
  TRACK 74 AUDIO
    TITLE "0:"
    INDEX 01 01:42:39
  TRACK 75 AUDIO
    TITLE "18:cjc019_5041"
    INDEX 01 01:43:21
  TRACK 76 AUDIO
    TITLE "0:"
    INDEX 01 01:46:12
  TRACK 77 AUDIO
    TITLE "17:cjc019_5042"
    INDEX 01 01:46:65
  TRACK 78 AUDIO
    TITLE "0:"
    INDEX 01 01:48:26
  TRACK 79 AUDIO
    TITLE "16:cjc019_5043"
    INDEX 01 01:50:07
  TRACK 80 AUDIO
    TITLE "0:"
    INDEX 01 01:51:25
  TRACK 81 AUDIO
    TITLE "18:cjc019_5044"
    INDEX 01 01:52:10
  TRACK 82 AUDIO
    TITLE "0:"
    INDEX 01 01:56:24
  TRACK 83 AUDIO
    TITLE "17:cjc019_5045"
    INDEX 01 01:56:73
  TRACK 84 AUDIO
    TITLE "0:"
    INDEX 01 01:58:27
  TRACK 85 AUDIO
    TITLE "16:cjc019_5046"
    INDEX 01 02:00:04
  TRACK 86 AUDIO
    TITLE "0:"
    INDEX 01 02:01:27
  TRACK 87 AUDIO
    TITLE "18:cjc019_5047"
    INDEX 01 02:02:05
  TRACK 88 AUDIO
    TITLE "0:"
    INDEX 01 02:04:35
  TRACK 89 AUDIO
    TITLE "17:cjc019_5048"
    INDEX 01 02:05:15
  TRACK 90 AUDIO
    TITLE "0:"
    INDEX 01 02:06:38
  TRACK 91 AUDIO
    TITLE "16:cjc019_5049"
    INDEX 01 02:08:19
  TRACK 92 AUDIO
    TITLE "0:"
    INDEX 01 02:09:52
  TRACK 93 AUDIO
    TITLE "18:cjc019_5050"
    INDEX 01 02:10:34
  TRACK 94 AUDIO
    TITLE "0:"
    INDEX 01 02:11:43
  TRACK 95 AUDIO
    TITLE "17:cjc019_5051"
    INDEX 01 02:12:27
  TRACK 96 AUDIO
    TITLE "0:"
    INDEX 01 02:13:61
  TRACK 97 AUDIO
    TITLE "16:cjc019_5052"
    INDEX 01 02:15:45
  TRACK 98 AUDIO
    TITLE "0:"
    INDEX 01 02:16:58
  TRACK 99 AUDIO
    TITLE "18:cjc019_5053"
    INDEX 01 02:17:32
  TRACK 100 AUDIO
    TITLE "0:"
    INDEX 01 02:18:49
  TRACK 101 AUDIO
    TITLE "17:cjc019_5054"
    INDEX 01 02:19:31
  TRACK 102 AUDIO
    TITLE "0:"
    INDEX 01 02:20:52
  TRACK 103 AUDIO
    TITLE "16:cjc019_5055"
    INDEX 01 02:22:37
  TRACK 104 AUDIO
    TITLE "0:"
    INDEX 01 02:23:48
  TRACK 105 AUDIO
    TITLE "18:cjc019_5056"
    INDEX 01 02:24:24
  TRACK 106 AUDIO
    TITLE "0:"
    INDEX 01 02:26:33
  TRACK 107 AUDIO
    TITLE "17:cjc019_5057"
    INDEX 01 02:27:05
  TRACK 108 AUDIO
    TITLE "0:"
    INDEX 01 02:28:18
